<svg xmlns="http://www.w3.org/2000/svg" width="30" height="27" viewBox="0 0 30 27">
  <path fill="#90A6B6" d="M1119,581 L1149,581 L1149,608 L1119,608 L1119,581 Z M1120.75781,582.8 L1120.75781,588.72578 L1121.64193,589.62614 L1128.3525,582.8 L1120.75781,582.8 Z M1120.75781,591.26432 L1120.75781,599 L1128.3542,599 L1120.75781,591.26432 Z M1147.24219,606.2 L1147.24219,600.8 L1120.75781,600.8 L1120.75781,606.2 L1147.24219,606.2 Z M1147.24219,599 L1147.24219,591.26432 L1139.6458,599 L1147.24219,599 Z M1147.24219,588.72578 L1147.24219,582.8 L1130.84672,582.8 L1122.88834,590.89538 L1130.84701,599 L1137.15299,599 L1147.24219,588.72578 Z M1131.36328,602.6 L1136.63672,602.6 L1136.63672,604.4 L1131.36328,604.4 L1131.36328,602.6 Z M1135.75781,590 C1135.27241,590 1134.87891,589.597056 1134.87891,589.1 C1134.87891,588.602944 1135.27241,588.2 1135.75781,588.2 C1136.24322,588.2 1136.63672,588.602944 1136.63672,589.1 C1136.63672,589.597056 1136.24322,590 1135.75781,590 Z M1135.75781,584.6 C1138.18096,584.6 1140.15234,586.6187 1140.15234,589.1 C1140.15234,590.0243 1139.88047,590.91272 1139.36613,591.6692 L1135.75781,596.97488 L1132.14955,591.6692 C1131.63516,590.91266 1131.36328,590.02424 1131.36328,589.1 C1131.36328,586.6187 1133.33467,584.6 1135.75781,584.6 Z M1137.92361,590.64056 C1138.2317,590.1875 1138.39453,589.65476 1138.39453,589.1 C1138.39453,587.61122 1137.2117,586.4 1135.75781,586.4 C1134.30393,586.4 1133.12109,587.61122 1133.12109,589.1 C1133.12109,589.6547 1133.28398,590.18744 1133.59207,590.64062 L1135.75781,593.82512 L1137.92361,590.64056 Z" transform="translate(-1119 -581)"/>
</svg>
