<svg xmlns="http://www.w3.org/2000/svg" width="30" height="30" viewBox="0 0 30 30">
  <path fill="#90A6B6" fill-rule="evenodd" d="M1133.54051,681.110547 C1134.39838,681.110547 1135.11316,681.825391 1135.11316,682.683203 C1135.11316,683.520625 1134.41871,684.255859 1133.54051,684.255859 C1132.6623,684.255859 1131.9883,683.520566 1131.9883,682.683203 C1131.9883,681.825391 1132.68275,681.110547 1133.54051,681.110547 Z M1133.80605,669.203242 C1136.42033,669.203242 1138.15641,670.653379 1138.15641,672.573262 C1138.15641,674.493145 1136.42033,675.881992 1135.86891,676.310898 C1134.74561,677.189102 1134.7251,677.801816 1134.7251,678.863887 C1134.7251,679.251953 1134.5209,679.70125 1133.52012,679.70125 C1132.6827,679.70125 1132.39682,679.394863 1132.39682,678.332852 C1132.39682,676.576387 1133.17295,675.738965 1133.76521,675.228379 C1134.43922,674.656504 1135.58297,674.023398 1135.58297,672.92043 C1135.58297,671.980937 1134.766,671.531582 1133.74477,671.531582 C1131.66152,671.531582 1132.11082,673.104238 1131.00797,673.104238 C1130.45648,673.104238 1129.78254,672.736621 1129.78254,671.940039 C1129.78254,670.837129 1131.04881,669.203242 1133.80605,669.203242 Z M1134,661 C1142.29119,661 1149,667.709922 1149,676 C1149,684.291191 1142.29002,691 1134,691 L1120.17188,691 C1119.52465,691 1119,690.475352 1119,689.828125 L1119,676 C1119,667.708809 1125.70992,661 1134,661 Z M1134,688.65625 C1140.99568,688.65625 1146.65625,682.994746 1146.65625,676 C1146.65625,669.004316 1140.99475,663.34375 1134,663.34375 C1127.00432,663.34375 1121.34375,669.005254 1121.34375,676 L1121.34375,688.65625 L1134,688.65625 Z" transform="translate(-1119 -661)"/>
</svg>
