<svg xmlns="http://www.w3.org/2000/svg" width="32" height="32" viewBox="0 0 32 32">
  <path fill="#90A6B6" d="M1141.47294,516.527108 C1142.00594,517.060107 1142.2995,517.768731 1142.29938,518.522479 C1142.29938,519.276228 1142.00588,519.984852 1141.47287,520.517851 C1140.93988,521.05085 1140.23131,521.344411 1139.4775,521.344411 C1138.72375,521.344411 1138.01506,521.05085 1137.48206,520.517851 C1136.94906,519.984852 1136.65556,519.27629 1136.65556,518.522479 C1136.65556,517.768793 1136.94906,517.060107 1137.48206,516.527108 C1138.58244,515.42686 1140.37269,515.42686 1141.47294,516.527108 Z M1140.145,519.190041 C1140.32337,519.011666 1140.4215,518.774666 1140.4215,518.522542 C1140.4215,518.270417 1140.32331,518.033355 1140.145,517.855043 C1139.961,517.670981 1139.71919,517.578919 1139.47744,517.578981 C1139.23563,517.578981 1138.99388,517.670981 1138.80981,517.855043 C1138.6315,518.033355 1138.53331,518.270417 1138.53331,518.522542 C1138.53331,518.774666 1138.6315,519.011728 1138.80981,519.190041 C1138.98819,519.368415 1139.22525,519.466603 1139.47744,519.466603 C1139.72962,519.466603 1139.96669,519.368353 1140.145,519.190041 Z M1140.062,509.775184 L1150,508 L1148.22506,517.937731 L1147.86894,518.522604 C1145.29569,522.748721 1142.67406,525.975715 1139.40231,528.806272 C1139.97844,529.670895 1140.28806,530.685831 1140.28806,531.748454 C1140.28806,533.169701 1139.73456,534.505823 1138.72962,535.510759 L1134.24038,540 L1131.88394,537.643505 C1131.11544,536.875069 1130.69219,535.853321 1130.69219,534.76651 C1130.69219,534.041262 1130.88156,533.345513 1131.23531,532.734202 L1128.9145,530.413394 L1126.78231,532.545577 L1125.45444,531.217705 L1127.58662,529.085521 L1125.26506,526.763963 C1124.63869,527.124775 1123.93625,527.3059 1123.23356,527.3059 C1122.19162,527.3059 1121.14975,526.909338 1120.3565,526.11609 L1118,523.759657 L1122.48925,519.27029 C1123.49419,518.265355 1124.83038,517.711856 1126.25156,517.711856 C1127.31419,517.711856 1128.32912,518.02148 1129.19375,518.597667 C1132.02431,515.325923 1135.25131,512.704366 1139.47744,510.131121 L1140.062,509.775184 Z M1124.64119,524.917154 C1125.73194,523.13522 1126.8325,521.531411 1127.9885,520.060101 C1126.67025,519.290228 1124.94606,519.469353 1123.81706,520.598225 L1120.65575,523.759594 L1121.68431,524.788155 C1122.49294,525.596778 1123.78131,525.639403 1124.64119,524.917154 Z M1137.40181,534.182824 C1138.052,533.532638 1138.41019,532.668077 1138.41019,531.748391 C1138.41019,531.127767 1138.2465,530.532518 1137.9405,530.010957 C1136.46894,531.167267 1134.86475,532.268078 1133.08237,533.359013 C1132.751,533.75295 1132.57012,534.245699 1132.57012,534.766448 C1132.57012,535.351634 1132.798,535.901821 1133.21181,536.31557 L1134.24044,537.344193 L1137.40181,534.182824 Z M1140.06444,525.633653 C1142.14694,523.55122 1144.00556,521.167662 1145.87794,518.173355 L1139.82675,512.122179 C1136.83225,513.994551 1134.44881,515.853172 1132.36631,517.935606 C1130.28381,520.018039 1128.42519,522.401597 1126.55281,525.396091 L1128.91444,527.757711 L1133.70956,522.962596 L1135.03744,524.290468 L1130.24238,529.085521 L1132.604,531.447142 C1135.5985,529.574708 1137.98194,527.716086 1140.06444,525.633653 Z M1146.63325,516.272671 L1147.68444,510.315558 L1141.72731,511.366806 L1146.63325,516.272671 Z" transform="translate(-1118 -508)"/>
</svg>
