<svg xmlns="http://www.w3.org/2000/svg" width="32" height="30" viewBox="0 0 32 30">
  <path fill="#90A6B6" d="M1138.62419,752.272277 L1150,752.272277 L1150,765.889233 L1145.3125,772 L1141.09731,766.50495 L1127.5,766.50495 L1127.5,762.388243 C1125.92969,762.267017 1124.41944,761.795978 1123.06588,761.00198 L1118,764.512995 L1118,752.210396 C1118,746.580322 1122.62619,742 1128.3125,742 C1133.99881,742 1138.625,746.580384 1138.625,752.210396 C1138.625,752.231064 1138.62431,752.251609 1138.62419,752.272277 Z M1123.56838,759.119369 C1124.96975,760.064728 1126.61019,760.564356 1128.3125,760.564356 C1132.96494,760.564356 1136.75,756.81677 1136.75,752.210396 C1136.75,747.604022 1132.96494,743.856436 1128.3125,743.856436 C1123.66006,743.856436 1119.875,747.604022 1119.875,752.210396 L1119.875,760.947401 L1123.03331,758.758478 L1123.56838,759.119369 Z M1148.125,765.264233 L1148.125,754.128713 L1138.44169,754.128713 C1138.27419,754.997525 1137.99556,755.827785 1137.62031,756.60396 L1144.9375,756.60396 L1144.9375,758.460396 L1136.46144,758.460396 C1135.91563,759.156374 1135.28106,759.780631 1134.57469,760.316832 L1141.8125,760.316832 L1141.8125,762.173267 L1132.5625,762.173267 L1132.5625,761.512809 C1131.573,761.957735 1130.50056,762.25229 1129.375,762.366894 L1129.375,764.648515 L1142.02769,764.648515 L1145.3125,768.930693 L1148.125,765.264233 Z M1128.3125,746.950495 C1129.86331,746.950495 1131.125,748.199691 1131.125,749.735149 C1131.125,750.945297 1130.34131,751.977661 1129.25,752.360767 L1129.25,753.757426 L1127.375,753.757426 L1127.375,750.663366 L1128.3125,750.663366 C1128.82944,750.663366 1129.25,750.246968 1129.25,749.735149 C1129.25,749.223329 1128.82944,748.806931 1128.3125,748.806931 C1127.79556,748.806931 1127.375,749.223329 1127.375,749.735149 L1125.5,749.735149 C1125.5,748.199691 1126.76169,746.950495 1128.3125,746.950495 Z M1127.375,755.613861 L1129.25,755.613861 L1129.25,757.470297 L1127.375,757.470297 L1127.375,755.613861 Z" transform="translate(-1118 -742)"/>
</svg>
